<svg width="2469" height="2364" fill="none" xmlns="http://www.w3.org/2000/svg"><g opacity=".6" filter="url(#a)"><path fill-rule="evenodd" clip-rule="evenodd" d="M1203.85 973.315c64.12 10.402 130.05-16.771 186.89 14.673 78.16 43.232 188.09 98.212 177.51 186.892-10.78 90.3-144.63 92.46-217.37 147.04-53.74 40.33-81.81 110.24-147.03 126.42-82.67 20.5-182.01 28.94-244.014-29.44-62.664-59.01-43.791-157.99-46.399-244.02-2.743-90.44-43.198-207.673 31.14-259.269 75.613-52.481 168.413 42.966 259.273 57.704Z" fill="#00FFE0"/></g><g filter="url(#b)"><path fill-rule="evenodd" clip-rule="evenodd" d="M1203.85 973.315c64.12 10.402 130.05-16.771 186.89 14.673 78.16 43.232 188.09 98.212 177.51 186.892-10.78 90.3-144.63 92.46-217.37 147.04-53.74 40.33-81.81 110.24-147.03 126.42-82.67 20.5-182.01 28.94-244.014-29.44-62.664-59.01-43.791-157.99-46.399-244.02-2.743-90.44-43.198-207.673 31.14-259.269 75.613-52.481 168.413 42.966 259.273 57.704Z" fill="#00FFE0"/></g><path clip-rule="evenodd" d="M1075.3 1032.5c64.12 10.4 130.05-16.77 186.89 14.67 78.16 43.24 188.09 98.21 177.5 186.9-10.77 90.29-144.63 92.45-217.36 147.03-53.74 40.33-81.82 110.25-147.03 126.42-82.668 20.5-182.009 28.95-244.016-29.44-62.664-59-43.791-157.98-46.4-244.01-2.742-90.45-43.197-207.68 31.141-259.272 75.613-52.481 168.418 42.962 259.275 57.702Z" stroke="#00FFE0" stroke-width="3"/><path opacity=".5" clip-rule="evenodd" d="M1072.23 1011.65c70.54 11.44 143.06-18.452 205.59 16.14 85.97 47.55 206.9 108.02 195.25 205.58-11.85 99.33-159.09 101.7-239.1 161.74-59.12 44.36-90 121.27-161.74 139.06-90.928 22.55-200.203 31.84-268.411-32.38-68.93-64.91-48.17-173.78-51.039-268.42-3.016-99.49-47.517-228.44 34.255-285.198 83.174-57.729 185.259 47.262 285.195 63.478Z" stroke="#00FFE0" stroke-width="3.3"/><defs><filter id="a" x="600" y="600" width="1268.96" height="1163.74" filterUnits="userSpaceOnUse" color-interpolation-filters="sRGB"><feFlood flood-opacity="0" result="BackgroundImageFix"/><feBlend in="SourceGraphic" in2="BackgroundImageFix" result="shape"/><feGaussianBlur stdDeviation="150" result="effect1_foregroundBlur_83_2"/></filter><filter id="b" x="0" y="0" width="2468.96" height="2363.74" filterUnits="userSpaceOnUse" color-interpolation-filters="sRGB"><feFlood flood-opacity="0" result="BackgroundImageFix"/><feBlend in="SourceGraphic" in2="BackgroundImageFix" result="shape"/><feGaussianBlur stdDeviation="450" result="effect1_foregroundBlur_83_2"/></filter></defs></svg>