<svg width="813" height="1029" fill="none" xmlns="http://www.w3.org/2000/svg"><g filter="url(#a)"><path d="M110.657 789.903a25 25 0 0 1 25 0l81.657 47.145a24.999 24.999 0 0 1 12.5 21.65v94.29a24.999 24.999 0 0 1-12.5 21.65l-81.657 47.142a24.98 24.98 0 0 1-25 0L29 974.638a24.999 24.999 0 0 1-12.5-21.65v-94.29a24.999 24.999 0 0 1 12.5-21.65l81.657-47.145Z" fill="url(#b)"/><path d="M225.065 594.736a25 25 0 0 1 25 0l81.657 47.145a25 25 0 0 1 12.5 21.651v94.289a25 25 0 0 1-12.5 21.651l-81.657 47.144a25 25 0 0 1-25 0l-81.657-47.144a25 25 0 0 1-12.5-21.651v-94.289a25 25 0 0 1 12.5-21.651l81.657-47.145Z" fill="url(#c)"/><path d="M339.473 789.903a25 25 0 0 1 25 0l81.657 47.145a24.999 24.999 0 0 1 12.5 21.65v94.29a24.999 24.999 0 0 1-12.5 21.65l-81.657 47.142a24.98 24.98 0 0 1-25 0l-81.657-47.142a24.999 24.999 0 0 1-12.5-21.65v-94.29a24.999 24.999 0 0 1 12.5-21.65l81.657-47.145Z" fill="url(#d)"/><path d="M448.497 594.736a25 25 0 0 1 25 0l81.658 47.145a25 25 0 0 1 12.5 21.651v94.289a25 25 0 0 1-12.5 21.651l-81.658 47.144a25 25 0 0 1-25 0l-81.657-47.144a25 25 0 0 1-12.5-21.651v-94.289a25 25 0 0 1 12.5-21.651l81.657-47.145Z" fill="url(#e)"/><path d="M562.906 399.569a25.004 25.004 0 0 1 25 0l81.657 47.145a25 25 0 0 1 12.5 21.651v94.289a25 25 0 0 1-12.5 21.651l-81.657 47.145a25.004 25.004 0 0 1-25 0l-81.658-47.145a25 25 0 0 1-12.499-21.651v-94.289a24.998 24.998 0 0 1 12.5-21.651l81.657-47.145Z" fill="url(#f)"/><path d="M677.314 594.736a25 25 0 0 1 25 0l81.657 47.145a25 25 0 0 1 12.5 21.651v94.289a25 25 0 0 1-12.5 21.651l-81.657 47.144a25 25 0 0 1-25 0l-81.657-47.144a25 25 0 0 1-12.5-21.651v-94.289a25 25 0 0 1 12.5-21.651l81.657-47.145Z" fill="url(#g)"/><path d="M221.027 202.384a25 25 0 0 1 25 0l81.657 47.144a25 25 0 0 1 12.5 21.651v94.289a25 25 0 0 1-12.5 21.651l-81.657 47.145a25 25 0 0 1-25 0l-81.657-47.145a25 25 0 0 1-12.5-21.651v-94.289a25 25 0 0 1 12.5-21.651l81.657-47.144Z" fill="url(#h)"/><path d="M335.435 7.217a25 25 0 0 1 25 0l81.657 47.145a25 25 0 0 1 12.5 21.65v94.29a25 25 0 0 1-12.5 21.65l-81.657 47.145a25 25 0 0 1-25 0l-81.657-47.145a25 25 0 0 1-12.5-21.65v-94.29a25 25 0 0 1 12.5-21.65l81.657-47.145Z" fill="url(#i)"/><path d="M449.843 202.384a25 25 0 0 1 25 0l81.657 47.144a25 25 0 0 1 12.5 21.651v94.289a25 25 0 0 1-12.5 21.651l-81.657 47.145a25 25 0 0 1-25 0l-81.657-47.145a25 25 0 0 1-12.5-21.651v-94.289a25 25 0 0 1 12.5-21.651l81.657-47.144Z" fill="url(#j)"/></g><defs><linearGradient id="b" x1="123.157" y1="782.686" x2="123.157" y2="1029" gradientUnits="userSpaceOnUse"><stop stop-color="#00FFE0"/><stop offset="1" stop-color="#D9D9D9" stop-opacity="0"/></linearGradient><linearGradient id="c" x1="237.565" y1="587.519" x2="237.565" y2="833.833" gradientUnits="userSpaceOnUse"><stop stop-color="#00FFE0"/><stop offset="1" stop-color="#D9D9D9" stop-opacity="0"/></linearGradient><linearGradient id="d" x1="351.973" y1="782.686" x2="351.973" y2="1029" gradientUnits="userSpaceOnUse"><stop stop-color="#00FFE0"/><stop offset="1" stop-color="#D9D9D9" stop-opacity="0"/></linearGradient><linearGradient id="e" x1="460.997" y1="587.519" x2="460.997" y2="833.833" gradientUnits="userSpaceOnUse"><stop stop-color="#00FFE0"/><stop offset="1" stop-color="#D9D9D9" stop-opacity="0"/></linearGradient><linearGradient id="f" x1="575.406" y1="392.353" x2="575.406" y2="638.666" gradientUnits="userSpaceOnUse"><stop stop-color="#00FFE0"/><stop offset="1" stop-color="#D9D9D9" stop-opacity="0"/></linearGradient><linearGradient id="g" x1="689.814" y1="587.519" x2="689.814" y2="833.833" gradientUnits="userSpaceOnUse"><stop stop-color="#00FFE0"/><stop offset="1" stop-color="#D9D9D9" stop-opacity="0"/></linearGradient><linearGradient id="h" x1="233.527" y1="195.167" x2="233.527" y2="441.481" gradientUnits="userSpaceOnUse"><stop stop-color="#00FFE0"/><stop offset="1" stop-color="#D9D9D9" stop-opacity="0"/></linearGradient><linearGradient id="i" x1="347.935" y1="0" x2="347.935" y2="246.314" gradientUnits="userSpaceOnUse"><stop stop-color="#00FFE0"/><stop offset="1" stop-color="#D9D9D9" stop-opacity="0"/></linearGradient><linearGradient id="j" x1="462.343" y1="195.167" x2="462.343" y2="441.481" gradientUnits="userSpaceOnUse"><stop stop-color="#00FFE0"/><stop offset="1" stop-color="#D9D9D9" stop-opacity="0"/></linearGradient><filter id="a" x="16.5" y="3.868" width="779.971" height="1024.26" filterUnits="userSpaceOnUse" color-interpolation-filters="sRGB"><feFlood flood-opacity="0" result="BackgroundImageFix"/><feBlend in="SourceGraphic" in2="BackgroundImageFix" result="shape"/><feColorMatrix in="SourceAlpha" values="0 0 0 0 0 0 0 0 0 0 0 0 0 0 0 0 0 0 127 0" result="hardAlpha"/><feOffset dy="5"/><feGaussianBlur stdDeviation="1.5"/><feComposite in2="hardAlpha" operator="arithmetic" k2="-1" k3="1"/><feColorMatrix values="0 0 0 0 1 0 0 0 0 1 0 0 0 0 1 0 0 0 1 0"/><feBlend in2="shape" result="effect1_innerShadow_1_53"/></filter></defs></svg>