<svg width="1920" height="446" fill="none" xmlns="http://www.w3.org/2000/svg"><path d="m-.5 48.5-4 2.5L-73 151.5l-67 294h2259L1941 101h-29.5l-11-7-3 5.5-23-3.5-6.5-6.5-10 2.5-6 4-18.5-8.5-11 2-6.5-5.5-4 8-13.5-4.5-5.5 2-8-5.5-8 3.5-3-8-13 14.5-24.5 2-8.5-6.5-21 4.5-6-4.5V96l-10-6.5-2 6.5-5.5-4-9 7h-15l-6-7-13.5 7-10.5-5-3.5 5h-10.5l-12.5-7-5.5 4-8-2-4-6.5h-13l-2-3-4.5 3-9-5.5-2.5 2.5L1534 86l-13-4v7.5h-12.5l-11.5-14-10.5 10.5-12.5-4-4.5 12h-9l-4-6.5-14-1.5-1.5-4-6 2.5h-7l-14 9.5-6.5-6.5-20-1.5-9.5-6.5-3.5 2.5-6.5-6.5-3 6.5h-15.5v-6.5l-12.5-11-10.5 7.5-9-3.5V72H1307v-5.5l-8.5 5.5-4 7.5-9-4h-10l-5 6.5h-12v2.5l-13 1.5-2.5-4-11.5 4-6-8.5-4.5-2-7.5 10.5-14-4-7.5 5.5-6.5-1.5-3.5 1.5-13.5-8h-3.5l-9-7.5-4 3.5h-10.5L1135 72l-10 3.5-26.5-14.5-5.5 5.5-8.5-5.5-15 11-8.5-5.5-5.5 3.5-1.5-3.5-19-10.5-2 5-6.5-10.5h-11l-5 5.5-22-5.5-3-9-35 19.5H936l-3.5 4-6-6.5-6 11.5h-5l-5.5-7-4.5 2-7.5-6.5-9.5 8h-6l-4-5.5-21 2-4-4.5-13-4.5-3.5 2-5-5.5h-9.5L816 47v-9.5h-6.5l-6-5.5-9 2.5h-11l-4 5.5-12-5.5v-7h-6L753 25l-3.5-5.5-4 2.5-1.5-2.5-9.5-2.5-4.5 8-5.5-1.5L718 25l-3.5-5.5H705l-8.5 2.5-6-5-6-3-6.5 3-12.5-3-6.5 5.5h-11l-8.5 2.5-4 5.5h-12l-12.5-4-4 7-13.5-3-8.5 7-6-4-11-3-5.5 3-7-7-12.5-4-1.5-5.5-13 5.5L517 17l-6 4.5-8.5-7.5-8 3-5.5-6-6.5 4.5h-9l-3 4H463l-3.5 4-8.5-2-6-4.5-10.5 8.5-16.5-4 2-6-10.5-4.5-1.5 4.5-7-3-3.5 3c-.667-.5-2.1-1.5-2.5-1.5h-8.5v3h-8c-2.5 0 .5-4.5 0-6-.4-1.2-3.5-2.833-5-3.5L362 9V6h-6.5L351 9l-3.5-3H343l-6 1.5-4-4.5-2.5-3-9 3H316l-3 4.5h-5l-3 5h-5.5c-1.2 0-6.5 3-9 4.5l-4 2-7.5 2.5-5.5-2.5h-12l-2-5h-7l-2 5H243l-4.5 2.5h-3L229 19v-5h-6v3l-7.5-3-6-1.5L208 17c-.4 1.2-2.5.5-3.5 0h-8c-3.6 0-1.5 1.333 0 2l-2.5 2.5h-17l-6 3-5.5-3-5.5 3c-2.833 0-8.7-.3-9.5-1.5-.8-1.2-2.667-.5-3.5 0l-6 1.5-5-1.5h-10.5l-5.5 4.5-3.5-3H110l-4 3-3.5-3L100 23l-6.5 1.5H85l-4.5 3H71L67.5 31 63 34h-7l-2 2h-9l-3.5 4H34c-1.2 0-3.5 1.333-4.5 2l-4 3h-7l-2 2-6-2H5l-1.5 3.5h-4Z" fill="#fff"/></svg>