<svg width="529" height="975" fill="none" xmlns="http://www.w3.org/2000/svg"><path d="M393.757 782.792 312.1 830.234a24 24 0 0 0-11.943 20.752v95.158a24 24 0 0 0 11.943 20.752l81.657 47.444a24.004 24.004 0 0 0 24.113 0l81.657-47.444a24 24 0 0 0 11.944-20.752v-95.158a24 24 0 0 0-11.944-20.752l-81.657-47.442a24 24 0 0 0-24.113 0Zm-114.408-196.4-81.657 47.442a24 24 0 0 0-11.944 20.752v95.159c0 8.551 4.55 16.456 11.944 20.751l81.657 47.443a24 24 0 0 0 24.113 0l81.657-47.443a23.998 23.998 0 0 0 11.944-20.751v-95.159a24 24 0 0 0-11.944-20.752l-81.657-47.442a24 24 0 0 0-24.113 0Zm-114.408 196.4-81.657 47.442a24 24 0 0 0-11.944 20.752v95.158a24 24 0 0 0 11.944 20.752l81.657 47.444a24.004 24.004 0 0 0 24.113 0l81.657-47.444a24 24 0 0 0 11.943-20.752v-95.158a24 24 0 0 0-11.943-20.752l-81.657-47.442a24 24 0 0 0-24.113 0Zm-109.025-196.4-81.657 47.442a24 24 0 0 0-11.943 20.752v95.159c0 8.551 4.55 16.456 11.943 20.751l81.657 47.443a24 24 0 0 0 24.114 0l81.657-47.443a23.997 23.997 0 0 0 11.943-20.751v-95.159a24 24 0 0 0-11.943-20.752L80.03 586.392a24 24 0 0 0-24.114 0Zm-114.408-196.4-81.657 47.443a24.002 24.002 0 0 0-11.943 20.752v95.158c0 8.551 4.55 16.456 11.943 20.752l81.657 47.442a24 24 0 0 0 24.114 0l81.657-47.442a24 24 0 0 0 11.943-20.752v-95.158a24 24 0 0 0-11.943-20.752l-81.657-47.443a24 24 0 0 0-24.114 0Zm341.879-198.431-81.657 47.443a23.998 23.998 0 0 0-11.944 20.751v95.159c0 8.551 4.55 16.456 11.944 20.751l81.657 47.443a24 24 0 0 0 24.113 0l81.657-47.443a23.998 23.998 0 0 0 11.944-20.751v-95.159c0-8.551-4.55-16.456-11.944-20.751L307.5 191.561a24 24 0 0 0-24.113 0ZM168.979-4.839 87.322 42.604a24 24 0 0 0-11.944 20.752v95.158a24 24 0 0 0 11.944 20.752l81.657 47.442a24 24 0 0 0 24.113 0l81.657-47.442a24 24 0 0 0 11.943-20.752V63.356a23.999 23.999 0 0 0-11.943-20.752L193.092-4.839a24 24 0 0 0-24.113 0ZM54.57 191.561l-81.656 47.443a23.998 23.998 0 0 0-11.944 20.751v95.159c0 8.551 4.55 16.456 11.944 20.751l81.657 47.443a24 24 0 0 0 24.113 0l81.657-47.443a23.997 23.997 0 0 0 11.943-20.751v-95.159a23.997 23.997 0 0 0-11.943-20.751l-81.657-47.443a24 24 0 0 0-24.113 0Z" stroke="#00FFE0" stroke-width="2"/></svg>