<svg width="1920" height="724" fill="none" xmlns="http://www.w3.org/2000/svg"><path d="m1983.17 625.111 4.07-4.141 64.14-160.348L2095.46.374-335.945 149.931l224.438 522.322 31.752-1.953 12.506 10.124 2.705-8.726 25.089 3.904 7.616 9.647 10.525-4.538 6.076-6.599 20.723 11.954 11.649-3.829 7.52 8.097 3.543-12.668 14.959 6.083 5.73-3.465 9.134 7.997 8.277-5.956 3.992 12.205 12.609-23.341 26.179-4.723 9.769 9.515 22.173-8.368 6.887 6.58-.62-10.077 11.384 9.415 1.532-10.21 6.302 5.837 9.019-11.448 16.145-.993 7.125 10.455 13.863-11.746 11.778 7.057 3.29-7.984 11.302-.695 14.121 10.025 5.539-6.566 8.801 2.571 4.925 9.813 13.992-.861 2.439 4.519 4.557-4.949 10.211 7.931 2.453-4.041 21.921-3.683 14.374 5.341-.715-11.628 13.454-.827 13.713 20.944 10.3-16.975 13.835 5.374 3.699-18.902 9.687-.596 4.925 9.813 15.212 1.398 1.995 6.103 6.22-4.274 7.534-.463 14.163-15.656 7.616 9.648 21.669 1.001 10.845 9.449 3.529-4.108 7.616 9.647 2.609-10.276 16.683-1.026.62 10.077 14.503 16.227 10.586-12.323 10.02 4.83-.333-5.426 11.301-.695.524 8.527 8.625-9.09 3.59-11.892 10.068 5.605 10.763-.662 4.762-10.408 12.916-.795-.239-3.876 13.849-3.186 3.073 6.036 11.996-6.963 7.268 12.781 5.035 2.803 7.071-16.776 15.45 5.275 7.547-9.024 7.14 1.896 3.624-2.558L722 654.443l3.767-.232 10.402 11.032 3.972-5.691 11.301-.695 7.33 4.996 10.429-6.089 29.905 20.726 5.396-8.891 9.673 7.965 15.096-18.048 9.673 7.965 5.586-5.791 1.948 5.327 21.452 15.021 1.675-7.884 7.998 15.849 11.839-.729 4.857-8.858 24.204 7.071 4.087 13.755 35.812-32.55 15.606-.96 3.386-6.433 7.078 9.68 5.361-18.226 5.382-.331 6.585 10.488 4.65-3.399 8.7 9.581 9.46-13.032 6.46-.397 4.83 8.262 22.41-4.491 4.73 6.712 14.42 6.116 3.58-3.332 5.91 8.196 10.22-.629 7.33 4.996.91 14.729 6.99-.431 6.99 8.13 9.44-4.472 11.84-.728 3.78-8.792 13.45 7.733.66 10.852 6.46-.397 9.39 3.313 4.29 8.296 4.07-4.141 1.85 3.777 10.46 3.247 4.08-12.701 6.07 1.961 6.85-2.756 4.29 8.296 10.23-.629 8.91-4.439 6.93 7.355 6.74 4.254 6.71-5.082 13.74 3.824 6.48-8.958 11.84-.728 8.91-4.439 3.78-8.792 12.91-.794 13.84 5.374 3.64-11.118 14.81 3.758 8.48-11.416 6.84 5.805 12.13 3.923 5.63-5.016 8.2 10.389 13.84 5.374 2.14 8.428 13.47-9.388 12.61 3.115 6.03-7.374 9.86 11.065 8.33-5.181 6.49 8.939 6.57-7.407 9.68-.596 2.85-6.4 8.07-.497 3.39-6.433 9.34 2.538 6.89 6.579 10.49-13.873 18.14 5.109-1.58 9.435 11.73 6.281 1.18-7.076 7.82 4.188 3.49-4.883c.76.731 2.4 2.187 2.83 2.16l9.15-.563-.29-4.651 8.61-.529c2.69-.166-.11 7.01.57 9.302.55 1.834 4.04 4.161 5.72 5.095l12.23-3.087.29 4.652 7-.431 4.55-4.949 4.06 4.42 4.84-.298 6.32-2.723 4.73 6.712 2.98 4.485 9.4-5.247 5.92-.364 2.8-7.175 5.38-.331 2.75-7.951 5.92-.364c1.29-.079 6.71-5.081 9.26-7.572l4.11-3.366 7.84-4.372 6.15 3.511 2.7-.165 10.22-.629 2.63 7.619 7.53-.463 1.68-7.884 8.07-.497 4.61-4.174 3.23-.198 7.23 3.445.48 7.752 6.46-.397-.29-4.651 8.36 4.154 6.6 1.929 1.18-7.076c.32-1.887 2.65-.941 3.77-.232l8.61-.53c3.88-.238 1.49-2.166-.19-3.1l2.45-4.042 9.15-.563 9.15-.562 6.17-5.049 6.21 4.287 5.63-5.015c3.05-.187 9.4-.111 10.37 1.697.98 1.807 2.92.598 3.77-.232l6.31-2.723 5.53 1.995 11.3-.695 5.49-7.341 4.05 4.419 7-.43 4.02-4.916 4.05 4.419 2.83 2.16 6.86-2.756 2.15-.132 7-.43 4.55-4.949 4.85-.298 5.38-.331 3.43-5.658 4.56-4.949 7.53-.464 1.97-3.233 5.92-.364 3.76-.232 3.39-6.433 8.07-.497c1.29-.079 3.64-2.298 4.65-3.398l4.02-4.916 5.38-.331 2.16-.133 1.96-3.233 6.65 2.704 5.92-.364 1.28-5.526 4.3-.265Z" fill="#fff"/></svg>