<svg width="533" height="975" fill="none" xmlns="http://www.w3.org/2000/svg"><path d="m135.157 744.269 81.657 47.145a23.998 23.998 0 0 1 12 20.784v94.29a23.998 23.998 0 0 1-12 20.784l-81.657 47.145a24 24 0 0 1-24 0L29.5 927.272a24 24 0 0 1-12-20.784v-94.29a24 24 0 0 1 12-20.784l81.657-47.145a24 24 0 0 1 24 0Zm114.408-195.167 81.657 47.145a23.999 23.999 0 0 1 12 20.785v94.289a24.001 24.001 0 0 1-12 20.785l-81.657 47.144a23.996 23.996 0 0 1-24 0l-81.657-47.144a24.001 24.001 0 0 1-12-20.785v-94.289a23.999 23.999 0 0 1 12-20.785l81.657-47.145a24 24 0 0 1 24 0Zm114.408 195.167 81.657 47.145a23.998 23.998 0 0 1 12 20.784v94.29a23.998 23.998 0 0 1-12 20.784l-81.657 47.145a24 24 0 0 1-24 0l-81.657-47.145a23.998 23.998 0 0 1-12-20.784v-94.29a23.998 23.998 0 0 1 12-20.784l81.657-47.145a24 24 0 0 1 24 0Zm109.024-195.167 81.657 47.145a23.999 23.999 0 0 1 12 20.785v94.289a24.001 24.001 0 0 1-12 20.785l-81.657 47.144a23.996 23.996 0 0 1-24 0l-81.657-47.144a24.003 24.003 0 0 1-12-20.785v-94.289a24.001 24.001 0 0 1 12-20.785l81.657-47.145a24 24 0 0 1 24 0Zm114.409-195.167 81.657 47.145a24.001 24.001 0 0 1 12 20.785v94.289a24.001 24.001 0 0 1-12 20.785l-81.657 47.145a24 24 0 0 1-24 0l-81.658-47.145a24.001 24.001 0 0 1-12-20.785v-94.289a24.001 24.001 0 0 1 12-20.785l81.658-47.145a24 24 0 0 1 24 0ZM245.527 156.75l81.657 47.144a24.001 24.001 0 0 1 12 20.785v94.289a23.999 23.999 0 0 1-12 20.785l-81.657 47.145a24 24 0 0 1-24 0l-81.657-47.145a23.999 23.999 0 0 1-12-20.785v-94.289a24.001 24.001 0 0 1 12-20.785l81.657-47.144a23.996 23.996 0 0 1 24 0ZM359.935-38.417l81.657 47.145a24 24 0 0 1 12 20.784v94.29a23.998 23.998 0 0 1-12 20.784l-81.657 47.145a24 24 0 0 1-24 0l-81.657-47.145a23.998 23.998 0 0 1-12-20.784v-94.29a24 24 0 0 1 12-20.784l81.657-47.145a24 24 0 0 1 24 0ZM474.343 156.75 556 203.894a24.001 24.001 0 0 1 12 20.785v94.289a23.999 23.999 0 0 1-12 20.785l-81.657 47.145a24 24 0 0 1-24 0l-81.657-47.145a24.001 24.001 0 0 1-12-20.785v-94.289a24.003 24.003 0 0 1 12-20.785l81.657-47.144a23.996 23.996 0 0 1 24 0Z" stroke="#00FFE0" stroke-width="2"/></svg>