<svg width="436" height="783" fill="none" xmlns="http://www.w3.org/2000/svg"><path clip-rule="evenodd" d="M-204.371 360.134c55.543-33.692 88.076-97.144 151.733-110.102 87.523-17.815 206.843-47.313 256.332 27.04 50.385 75.701-50.066 164.193-69.995 252.917-14.727 65.561 9.277 136.974-29.854 191.598-49.6 69.236-119.71 140.119-204.776 135.925-85.967-4.238-135.827-91.798-193.633-155.568-60.774-67.044-167.62-129.996-144.533-217.491 23.483-88.995 156.031-76.584 234.726-124.319Z" stroke="#00FFE0" stroke-width="3"/><path opacity=".5" clip-rule="evenodd" d="M-220.234 346.252c61.098-37.061 96.883-106.858 166.906-121.112 96.275-19.596 227.527-52.044 281.965 29.745 55.425 83.27-55.071 180.611-76.994 278.208-16.199 72.117 10.205 150.671-32.839 210.757-54.56 76.16-131.682 154.132-225.254 149.519-94.563-4.663-149.41-100.978-212.996-171.126-66.851-73.748-184.382-142.995-158.986-239.239 25.831-97.895 171.633-84.243 258.198-136.752Z" stroke="#00FFE0" stroke-width="3.3"/></svg>