<svg width="332" height="624" fill="none" xmlns="http://www.w3.org/2000/svg"><path clip-rule="evenodd" d="M-68.703 103.502c64.124 10.402 130.05-16.771 186.895 14.673 78.157 43.233 188.09 98.207 177.503 186.895-10.779 90.295-144.631 92.453-217.365 147.034C24.586 492.435-3.485 562.349-68.703 578.523c-82.665 20.501-182.006 28.946-244.013-29.44-62.664-59.004-43.791-157.981-46.4-244.013-2.742-90.447-43.197-207.676 31.141-259.272 75.613-52.481 168.418 42.966 259.272 57.704Z" stroke="#00FFE0" stroke-width="3"/><path opacity=".5" clip-rule="evenodd" d="M-71.766 82.647C-1.23 94.089 71.289 64.198 133.819 98.787c85.972 47.556 206.898 108.028 195.253 205.585-11.857 99.324-159.094 101.697-239.101 161.736C30.852 510.472-.026 587.378-71.766 605.17c-90.932 22.551-200.207 31.841-268.415-32.384-68.93-64.905-48.17-173.78-51.039-268.414-3.016-99.493-47.517-228.444 34.255-285.2 83.174-57.73 185.259 47.262 285.199 63.475Z" stroke="#00FFE0" stroke-width="3.3"/></svg>