<svg width="338" height="950" fill="none" xmlns="http://www.w3.org/2000/svg"><path clip-rule="evenodd" d="M322.629 336.134c55.543-33.692 88.076-97.144 151.733-110.102 87.523-17.815 206.843-47.313 256.332 27.04 50.385 75.701-50.066 164.193-69.995 252.917-14.727 65.561 9.277 136.974-29.854 191.598-49.599 69.236-119.711 140.119-204.776 135.925-85.967-4.238-135.827-91.798-193.633-155.568C171.662 610.9 64.816 547.948 87.903 460.453c23.483-88.995 156.031-76.584 234.726-124.319Z" stroke="#00FFE0" stroke-width="3"/><path opacity=".5" clip-rule="evenodd" d="M306.766 322.252c61.098-37.061 96.883-106.859 166.906-121.112 96.275-19.597 227.527-52.045 281.965 29.744 55.425 83.271-55.071 180.612-76.994 278.209-16.199 72.116 10.205 150.671-32.839 210.757-54.56 76.16-131.682 154.131-225.254 149.518-94.563-4.662-149.41-100.978-212.996-171.125-66.851-73.749-184.382-142.996-158.986-239.24 25.831-97.895 171.633-84.242 258.198-136.751Z" stroke="#00FFE0" stroke-width="3.3"/></svg>